<svg width="39" height="39" viewBox="0 0 39 39" fill="none" xmlns="http://www.w3.org/2000/svg">
<rect y="25" width="28" height="28" rx="6" transform="rotate(-60 0 25)" fill="#FF0000"/>
<path d="M21.2393 17.674C21.1882 17.1584 20.9688 16.7578 20.581 16.4723C20.1932 16.1868 19.6669 16.044 19.0021 16.044C18.5504 16.044 18.169 16.108 17.858 16.2358C17.5469 16.3594 17.3082 16.532 17.142 16.7536C16.9801 16.9751 16.8991 17.2266 16.8991 17.5078C16.8906 17.7422 16.9396 17.9467 17.0462 18.1214C17.157 18.2962 17.3082 18.4474 17.5 18.5753C17.6918 18.6989 17.9134 18.8075 18.1648 18.9013C18.4162 18.9908 18.6847 19.0675 18.9702 19.1314L20.1463 19.4126C20.7173 19.5405 21.2415 19.7109 21.7188 19.924C22.196 20.1371 22.6094 20.3991 22.9588 20.7102C23.3082 21.0213 23.5788 21.3878 23.7706 21.8097C23.9666 22.2315 24.0668 22.7152 24.071 23.2607C24.0668 24.0618 23.8622 24.7564 23.4574 25.3445C23.0568 25.9283 22.4773 26.3821 21.7188 26.706C20.9645 27.0256 20.0547 27.1854 18.9893 27.1854C17.9325 27.1854 17.0121 27.0234 16.228 26.6996C15.4482 26.3757 14.8388 25.8963 14.3999 25.2614C13.9652 24.6222 13.7372 23.8317 13.7159 22.8899H16.3942C16.424 23.3288 16.5497 23.6953 16.7713 23.9893C16.9972 24.2791 17.2976 24.4986 17.6726 24.6477C18.0518 24.7926 18.4801 24.8651 18.9574 24.8651C19.4261 24.8651 19.8331 24.7969 20.1783 24.6605C20.5277 24.5241 20.7983 24.3345 20.9901 24.0916C21.1818 23.8487 21.2777 23.5696 21.2777 23.2543C21.2777 22.9602 21.1903 22.7131 21.0156 22.5128C20.8452 22.3125 20.5938 22.142 20.2614 22.0014C19.9332 21.8608 19.5305 21.733 19.0533 21.6179L17.6278 21.2599C16.5241 20.9915 15.6527 20.5717 15.0135 20.0007C14.3743 19.4297 14.0568 18.6605 14.0611 17.6932C14.0568 16.9006 14.2678 16.2081 14.6939 15.6158C15.1243 15.0234 15.7145 14.5611 16.4645 14.2287C17.2145 13.8963 18.0668 13.7301 19.0213 13.7301C19.9929 13.7301 20.8409 13.8963 21.5653 14.2287C22.294 14.5611 22.8608 15.0234 23.2656 15.6158C23.6705 16.2081 23.8793 16.8942 23.892 17.674H21.2393Z" fill="white"/>
</svg>
