<svg width="33" height="32" viewBox="0 0 33 32" fill="none" xmlns="http://www.w3.org/2000/svg">
<path d="M16.3912 0C13.6191 0 11.3291 2.22975 11.3291 5.06215C11.3291 7.89454 13.5589 10.1243 16.3912 10.1243C19.6455 10.1243 22.2971 12.7759 22.2971 16.0301C22.2971 18.742 20.4892 21.032 18.0184 21.7552C20.2481 22.4783 21.8752 24.5273 21.8752 26.9981C21.8752 29.0471 20.7302 30.855 19.0429 31.8192C26.5758 30.5537 32.3611 23.9849 32.3611 16.0301C32.4214 7.17137 25.25 0 16.3912 0Z" fill="#5244AB"/>
<path d="M15.9699 31.9999C18.742 31.9999 21.032 29.7701 21.032 26.9377C21.032 24.1656 18.8023 21.8756 15.9699 21.8756C12.7156 21.8756 10.064 19.224 10.064 15.9697C10.064 13.2579 11.8719 10.9679 14.3427 10.2447C12.113 9.52153 10.4859 7.47257 10.4859 5.00176C10.4859 2.95279 11.6309 1.14488 13.3183 0.180664C5.78531 1.50646 0 8.0752 0 16.03C0 24.8285 7.17137 31.9999 15.9699 31.9999Z" fill="#F15C45"/>
</svg>
